# Made in Blockbench 5.1.6
mtllib fancy_picket_gate_half_open.mtl

o post
v 0.625 -0.49375 -0.06875
v 0.625 -0.49375 0.05625
v 0.625 0.50625 0.05625
v 0.625 0.50625 -0.06875
v 0.5 -0.49375 -0.06875
v 0.5 -0.49375 0.05625
v 0.5 0.50625 0.05625
v 0.5 0.50625 -0.06875
v -0.5 -0.49375 -0.06875
v -0.5 -0.49375 0.05625
v -0.5 0.50625 0.05625
v -0.5 0.50625 -0.06875
v -0.625 -0.49375 -0.06875
v -0.625 -0.49375 0.05625
v -0.625 0.50625 0.05625
v -0.625 0.50625 -0.06875
vt 0.4375 1
vt 0.4375 0
vt 0.5625 0
vt 0.5625 1
vt 0.4375 0
vt 0.5625 0
vt 0.5625 1
vt 0.4375 1
vt 0 0
vt 0 1
vt 0.125 1
vt 0.125 0
vt 0.125 0
vt 0.125 1
vt 0 1
vt 0 0
vt 0.125 0.4375
vt 0 0.4375
vt 0 0.5625
vt 0.125 0.5625
vt 0.125 0.5625
vt 0 0.5625
vt 0 0.4375
vt 0.125 0.4375
vt 0.4375 1
vt 0.4375 0
vt 0.5625 0
vt 0.5625 1
vt 0.5625 1
vt 0.5625 0
vt 0.4375 0
vt 0.4375 1
vt 1 1
vt 0.875 1
vt 0.875 0
vt 1 0
vt 0.125 0
vt 0.125 1
vt 0 1
vt 0 0
vt 1 0.4375
vt 0.875 0.4375
vt 0.875 0.5625
vt 1 0.5625
vt 1 0.5625
vt 0.875 0.5625
vt 0.875 0.4375
vt 1 0.4375
vn 1 0 0
vn -1 0 0
vn 0 0 1
vn 0 0 1
vn 0 1 0
vn 0 1 0
vn 1 0 0
vn 1 0 0
vn 0 0 -1
vn 0 0 1
vn 0 1 0
vn 0 1 0
usemtl m_cebedf6d-0686-daac-82ce-c196b54e7844
f 3/1/1 2/2/1 1/3/1 4/4/1
f 5/5/2 6/6/2 7/7/2 8/8/2
f 1/9/3 4/10/3 8/11/3 5/12/3
f 2/13/4 3/14/4 7/15/4 6/16/4
f 6/17/5 2/18/5 1/19/5 5/20/5
f 7/21/6 3/22/6 4/23/6 8/24/6
f 11/25/7 10/26/7 9/27/7 12/28/7
f 15/29/8 14/30/8 13/31/8 16/32/8
f 16/33/9 12/34/9 9/35/9 13/36/9
f 10/37/10 11/38/10 15/39/10 14/40/10
f 14/41/11 10/42/11 9/43/11 13/44/11
f 15/45/12 11/46/12 12/47/12 16/48/12
o gate_selection
v 0.16291275185209853 -0.5000005380040595 0.5486356382133118
v 0.11871860888130381 -0.5000005851481111 0.5928298428907889
v 0.1187181147928228 0.4374994148516221 0.5928303488786575
v 0.1629122577636175 0.4374994619956737 0.5486361442011805
v 0.0745243424971187 -0.5000005368822403 0.4602473522716979
v 0.030330199526323987 -0.500000584026292 0.5044415569491749
v 0.030329705437842858 0.4374994159734413 0.5044420629370436
v 0.07452384840863757 0.4374994631174929 0.4602478582595666
v -0.19064088556782088 -0.5000005335167828 0.19508249444685588
v -0.2348350285386156 -0.5000005806608343 0.23927669912433291
v -0.23483552262709673 0.43749941933889885 0.23927720511220157
v -0.19064137965630196 0.4374994664829505 0.19508300043472457
v -0.2790292949228006 -0.5000005323949634 0.10669420850524194
v -0.3232234378935954 -0.5000005795390151 0.15088841318271895
v -0.32322393198207644 0.43749942046071805 0.15088891917058767
v -0.2790297890112818 0.4374994676047697 0.1066947144931106
v 0.2954954044512712 -0.5000005396867886 0.6812180594123837
v 0.2513012614804765 -0.5000005868308404 0.7254122640898607
v 0.25130073445276335 0.4999994131688751 0.725412803810254
v 0.29549487742355807 0.49999946031292664 0.6812185991327769
v 0.2513011997737812 -0.5000005391258789 0.6370239164415766
v 0.20710705680298658 -0.5000005862699306 0.6812181211190537
v 0.20710652977527344 0.49999941372978474 0.6812186608394469
v 0.25130067274606804 0.4999994608738363 0.6370244561619699
v -0.013864105424564066 -0.5000005357604207 0.37185907404343316
v -0.05805824839535878 -0.5000005829044725 0.4160532787209102
v -0.0580587095446079 0.37499941709527856 0.4160537509762542
v -0.013864566573813186 0.3749994642393303 0.37185954629877715
v -0.10225251477954395 -0.5000005346386014 0.28347078810181914
v -0.14644665775033866 -0.5000005817826532 0.32766499277929617
v -0.14644711889958772 0.37499941821709776 0.3276654650346402
v -0.10225297592879301 0.3749994653611495 0.2834712603571632
v -0.36741766571107753 -0.5000005312731446 0.01830591485027875
v -0.4116118086818723 -0.5000005784171964 0.06250011952775573
v -0.41161233570958544 0.4999994215825192 0.06250065924814907
v -0.3674181927387907 0.49999946872657075 0.018306454570672002
v -0.41161187038856745 -0.500000530712235 -0.02588822812052824
v -0.45580601335936216 -0.5000005778562868 0.018305976556948787
v -0.45580654038707547 0.49999942214342874 0.018306516277341964
v -0.41161239741628064 0.4999994692874803 -0.025887688400134987
v 0.25130089914892373 0.18749941316896415 0.725412635147631
v 0.20710675617812901 0.1874993660249125 0.769606839825108
v 0.20710669029966466 0.31249936602487693 0.769606907290157
v 0.2513008332704596 0.3124994131689285 0.7254127026126802
v -0.4558063756909151 0.1874994221435177 0.018306347614719075
v -0.5000005186617097 0.18749937499946606 0.06250055229219618
v -0.5000005845401738 0.3124993749994305 0.06250061975724534
v -0.45580644156937916 0.3124994221434821 0.018306415079768303
v 0.25130116266278013 -0.31250058683089355 0.7254123652874342
v 0.20710701969198542 -0.31250063397494515 0.7696065699649113
v 0.2071069538135214 -0.18750063397498076 0.7696066374299606
v 0.2513010967843161 -0.1875005868309291 0.7254124327524836
v -0.4558061121770584 -0.31250057785634 0.018306077754522525
v -0.5000002551478531 -0.3125006250003916 0.06250028243199957
v -0.5000003210263173 -0.1875006250004272 0.06250034989704872
v -0.45580617805552254 -0.18750057785637556 0.01830614521957169
vt 0.1875 0
vt 0.25 0
vt 0.25 1
vt 0.1875 1
vt 0.3125 0
vt 0.375 0
vt 0.375 1
vt 0.3125 1
vt 0.3125 1
vt 0.1875 1
vt 0.1875 0
vt 0.3125 0
vt 0.6875 1
vt 0.8125 1
vt 0.8125 0
vt 0.6875 0
vt 0.3125 0.5
vt 0.1875 0.5
vt 0.1875 0.4375
vt 0.3125 0.4375
vt 0.3125 0.5
vt 0.1875 0.5
vt 0.1875 0.4375
vt 0.3125 0.4375
vt 0.5625 0
vt 0.625 0
vt 0.625 1
vt 0.5625 1
vt 0.6875 0
vt 0.75 0
vt 0.75 1
vt 0.6875 1
vt 0.8125 1
vt 0.6875 1
vt 0.6875 0
vt 0.8125 0
vt 0.1875 1
vt 0.3125 1
vt 0.3125 0
vt 0.1875 0
vt 0.6875 0.5
vt 0.5625 0.5
vt 0.5625 0.4375
vt 0.6875 0.4375
vt 0.6875 0.5
vt 0.8125 0.5
vt 0.8125 0.4375
vt 0.6875 0.4375
vt 0.875 0
vt 0.9375 0
vt 0.9375 1
vt 0.875 1
vt 0.0625 0
vt 0.125 0
vt 0.125 1
vt 0.0625 1
vt 0 1
vt 0.0625 1
vt 0.0625 0
vt 0 0
vt 0.9375 1
vt 1 1
vt 1 0
vt 0.9375 0
vt 0 0.5
vt 0.0625 0.5
vt 0.0625 0.4375
vt 0 0.4375
vt 0.0625 0.5
vt 0 0.5
vt 0 0.4375
vt 0.0625 0.4375
vt 0.4375 0
vt 0.5 0
vt 0.5 1
vt 0.4375 1
vt 0.6875 0
vt 0.75 0
vt 0.75 1
vt 0.6875 1
vt 0.5625 1
vt 0.4375 1
vt 0.4375 0
vt 0.5625 0
vt 0.4375 1
vt 0.5625 1
vt 0.5625 0
vt 0.4375 0
vt 0.5625 0.5
vt 0.4375 0.5
vt 0.4375 0.4375
vt 0.5625 0.4375
vt 0.5625 0.5
vt 0.4375 0.5
vt 0.4375 0.4375
vt 0.5625 0.4375
vt 0.875 0
vt 0.9375 0
vt 0.9375 1
vt 0.875 1
vt 0.0625 0
vt 0.125 0
vt 0.125 1
vt 0.0625 1
vt 0.9375 1
vt 1 1
vt 1 0
vt 0.9375 0
vt 0 1
vt 0.0625 1
vt 0.0625 0
vt 0 0
vt 1 0.5
vt 0.9375 0.5
vt 0.9375 0.4375
vt 1 0.4375
vt 1 0.5
vt 0.9375 0.5
vt 0.9375 0.4375
vt 1 0.4375
vt 0.875 0.6875
vt 0.9375 0.6875
vt 0.9375 0.8125
vt 0.875 0.8125
vt 0.125 0.6875
vt 0.1875 0.6875
vt 0.1875 0.8125
vt 0.125 0.8125
vt 0 0.6875
vt 0 0.8125
vt 1 0.8125
vt 1 0.6875
vt 1 0.6875
vt 1 0.8125
vt 0 0.8125
vt 0 0.6875
vt 0 0.6875
vt 1 0.6875
vt 1 0.625
vt 0 0.625
vt 0 0.75
vt 1 0.75
vt 1 0.6875
vt 0 0.6875
vt 0.875 0.1875
vt 0.9375 0.1875
vt 0.9375 0.3125
vt 0.875 0.3125
vt 0.125 0.1875
vt 0.1875 0.1875
vt 0.1875 0.3125
vt 0.125 0.3125
vt 0 0.1875
vt 0 0.3125
vt 1 0.3125
vt 1 0.1875
vt 1 0.1875
vt 1 0.3125
vt 0 0.3125
vt 0 0.1875
vt 0 0.1875
vt 1 0.1875
vt 1 0.125
vt 0 0.125
vt 0 0.25
vt 1 0.25
vt 1 0.1875
vt 0 0.1875
vn -0.7071072748398385 8.974553544732028e-9 -0.7071062875329118
vn -0.7071072748398385 8.974553544732028e-9 -0.7071062875329118
vn 0.7071062875327155 7.543048261393994e-7 -0.7071072748396326
vn 0.7071062875327155 7.543048261393994e-7 -0.7071072748396326
vn -5.270277131796715e-7 0.9999999999997156 5.397203932492479e-7
vn -5.270277131796715e-7 0.9999999999997156 5.397203932492479e-7
vn -0.7071072748398385 8.974553485520133e-9 -0.7071062875329118
vn -0.7071072748398378 8.974553603944592e-9 -0.7071062875329125
vn 0.7071062875327155 7.543048261393994e-7 -0.7071072748396326
vn 0.7071062875327155 7.543048261393994e-7 -0.7071072748396326
vn -5.270277131796715e-7 0.9999999999997156 5.397203932492479e-7
vn -5.27027713807708e-7 0.9999999999997156 5.397203938772853e-7
vn -0.7071072748398385 8.974553544732028e-9 -0.7071062875329118
vn -0.7071072748398397 8.974553544730688e-9 -0.7071062875329106
vn 0.7071062875327155 7.543048261393994e-7 -0.7071072748396326
vn 0.7071062875327155 7.543048261393994e-7 -0.7071072748396326
vn -5.270277119235967e-7 0.9999999999997156 5.39720394505321e-7
vn -5.270277131796715e-7 0.9999999999997156 5.397203932492479e-7
vn -0.7071072748398385 8.974553417849395e-9 -0.7071062875329118
vn -0.7071072748398385 8.974553544732028e-9 -0.7071062875329118
vn 0.7071062875327155 7.543048261393994e-7 -0.7071072748396326
vn 0.7071062875327155 7.543048261473296e-7 -0.7071072748396326
vn -5.270277144357446e-7 0.9999999999997156 5.397203945053227e-7
vn -5.27027713807708e-7 0.9999999999997156 5.397203938772853e-7
vn -0.7071072748398378 8.974553655755e-9 -0.7071062875329125
vn -0.7071072748398385 8.974553433709725e-9 -0.7071062875329118
vn 0.7071062875327155 7.543048261393994e-7 -0.7071072748396326
vn 0.7071062875327155 7.543048261393994e-7 -0.7071072748396326
vn -5.270277144357446e-7 0.9999999999997156 5.397203945053227e-7
vn -5.270277131796715e-7 0.9999999999997156 5.397203932492479e-7
vn -0.7071072748398385 8.974551768375188e-9 -0.7071062875329118
vn -0.7071072748398397 8.974553544730688e-9 -0.7071062875329106
vn -0.7071062875327155 -7.543048260838883e-7 0.7071072748396326
vn -0.7071062875327155 -7.543048261393994e-7 0.7071072748396326
vn -5.270277134740636e-7 0.9999999999997156 5.397203935828928e-7
vn -5.27027712551635e-7 0.9999999999997156 5.397203926212104e-7
vn -0.7071072748398385 8.974555321088867e-9 -0.7071062875329118
vn -0.7071072748398385 8.974553544732028e-9 -0.7071062875329118
vn -0.7071062875327155 -7.543048261949106e-7 0.7071072748396326
vn -0.7071062875327155 -7.543048261393994e-7 0.7071072748396326
vn -5.270277131796715e-7 0.9999999999997156 5.397203932492479e-7
vn -5.270277134740636e-7 0.9999999999997156 5.397203935828928e-7
usemtl m_966d7dcc-661b-5377-a2ab-8a5fa7d1fda5
f 17/49/13 18/50/13 19/51/13 20/52/13
f 21/53/14 22/54/14 23/55/14 24/56/14
f 24/57/15 20/58/15 17/59/15 21/60/15
f 23/61/16 19/62/16 18/63/16 22/64/16
f 22/65/17 18/66/17 17/67/17 21/68/17
f 23/69/18 19/70/18 20/71/18 24/72/18
f 25/73/19 26/74/19 27/75/19 28/76/19
f 29/77/20 30/78/20 31/79/20 32/80/20
f 32/81/21 28/82/21 25/83/21 29/84/21
f 31/85/22 27/86/22 26/87/22 30/88/22
f 30/89/23 26/90/23 25/91/23 29/92/23
f 31/93/24 27/94/24 28/95/24 32/96/24
f 33/97/25 34/98/25 35/99/25 36/100/25
f 37/101/26 38/102/26 39/103/26 40/104/26
f 40/105/27 36/106/27 33/107/27 37/108/27
f 39/109/28 35/110/28 34/111/28 38/112/28
f 38/113/29 34/114/29 33/115/29 37/116/29
f 39/117/30 35/118/30 36/119/30 40/120/30
f 41/121/31 42/122/31 43/123/31 44/124/31
f 45/125/32 46/126/32 47/127/32 48/128/32
f 48/129/33 44/130/33 41/131/33 45/132/33
f 47/133/34 43/134/34 42/135/34 46/136/34
f 46/137/35 42/138/35 41/139/35 45/140/35
f 47/141/36 43/142/36 44/143/36 48/144/36
f 49/145/37 50/146/37 51/147/37 52/148/37
f 53/149/38 54/150/38 55/151/38 56/152/38
f 56/153/39 52/154/39 49/155/39 53/156/39
f 55/157/40 51/158/40 50/159/40 54/160/40
f 54/161/41 50/162/41 49/163/41 53/164/41
f 55/165/42 51/166/42 52/167/42 56/168/42
f 57/169/43 58/170/43 59/171/43 60/172/43
f 61/173/44 62/174/44 63/175/44 64/176/44
f 57/177/45 60/178/45 64/179/45 61/180/45
f 58/181/46 59/182/46 63/183/46 62/184/46
f 62/185/47 58/186/47 57/187/47 61/188/47
f 63/189/48 59/190/48 60/191/48 64/192/48
f 65/193/49 66/194/49 67/195/49 68/196/49
f 69/197/50 70/198/50 71/199/50 72/200/50
f 65/201/51 68/202/51 72/203/51 69/204/51
f 66/205/52 67/206/52 71/207/52 70/208/52
f 70/209/53 66/210/53 65/211/53 69/212/53
f 71/213/54 67/214/54 68/215/54 72/216/54