# Made in Blockbench 5.1.6
mtllib fancy_picket_gate_closed.mtl

o post
v 0.625 -0.49375 -0.06875
v 0.625 -0.49375 0.05625
v 0.625 0.50625 0.05625
v 0.625 0.50625 -0.06875
v 0.5 -0.49375 -0.06875
v 0.5 -0.49375 0.05625
v 0.5 0.50625 0.05625
v 0.5 0.50625 -0.06875
v -0.5 -0.49375 -0.06875
v -0.5 -0.49375 0.05625
v -0.5 0.50625 0.05625
v -0.5 0.50625 -0.06875
v -0.625 -0.49375 -0.06875
v -0.625 -0.49375 0.05625
v -0.625 0.50625 0.05625
v -0.625 0.50625 -0.06875
vt 0.4375 1
vt 0.4375 0
vt 0.5625 0
vt 0.5625 1
vt 0.4375 0
vt 0.5625 0
vt 0.5625 1
vt 0.4375 1
vt 0 0
vt 0 1
vt 0.125 1
vt 0.125 0
vt 0.125 0
vt 0.125 1
vt 0 1
vt 0 0
vt 0.125 0.4375
vt 0 0.4375
vt 0 0.5625
vt 0.125 0.5625
vt 0.125 0.5625
vt 0 0.5625
vt 0 0.4375
vt 0.125 0.4375
vt 0.4375 1
vt 0.4375 0
vt 0.5625 0
vt 0.5625 1
vt 0.5625 1
vt 0.5625 0
vt 0.4375 0
vt 0.4375 1
vt 1 1
vt 0.875 1
vt 0.875 0
vt 1 0
vt 0.125 0
vt 0.125 1
vt 0 1
vt 0 0
vt 1 0.4375
vt 0.875 0.4375
vt 0.875 0.5625
vt 1 0.5625
vt 1 0.5625
vt 0.875 0.5625
vt 0.875 0.4375
vt 1 0.4375
vn 1 0 0
vn -1 0 0
vn 0 0 1
vn 0 0 1
vn 0 1 0
vn 0 1 0
vn 1 0 0
vn 1 0 0
vn 0 0 -1
vn 0 0 1
vn 0 1 0
vn 0 1 0
usemtl m_cebedf6d-0686-daac-82ce-c196b54e7844
f 3/1/1 2/2/1 1/3/1 4/4/1
f 5/5/2 6/6/2 7/7/2 8/8/2
f 1/9/3 4/10/3 8/11/3 5/12/3
f 2/13/4 3/14/4 7/15/4 6/16/4
f 6/17/5 2/18/5 1/19/5 5/20/5
f 7/21/6 3/22/6 4/23/6 8/24/6
f 11/25/7 10/26/7 9/27/7 12/28/7
f 15/29/8 14/30/8 13/31/8 16/32/8
f 16/33/9 12/34/9 9/35/9 13/36/9
f 10/37/10 11/38/10 15/39/10 14/40/10
f 14/41/11 10/42/11 9/43/11 13/44/11
f 15/45/12 11/46/12 12/47/12 16/48/12
o gate
v 0.5000002617997732 -0.4999997959681327 -0.0625005967305445
v 0.5000003054330044 -0.49999986141797964 -5.967305940074441e-7
v 0.49999960730130366 0.5000001385812283 4.504674445751644e-7
v 0.4999995636680723 0.5000002040310753 -0.062499549532505916
v 0.4375002617998035 -0.4999998396014097 -0.06250055309735889
v 0.43750030543303486 -0.49999990505125663 -5.530974084011486e-7
v 0.4374996073013341 0.5000000949479513 4.941006301814599e-7
v 0.4374995636681027 0.5000001603977983 -0.06249950589932031
v 0.0625002181667551 -0.500000101401121 -0.06250022584836784
v 0.06250026179998636 -0.500000166850968 -2.2584841734285543e-7
v 0.062499650934748074 0.3749998331483389 6.904498664195291e-7
v 0.062499607301516824 0.3749998985981859 -0.06249930955008408
v -0.062499781833184054 -0.500000188667675 -0.06250013858199663
v -0.0624997381999528 -0.500000254117522 -1.3858204613026448e-7
v -0.06250034906519097 0.3749997458817849 7.777162376321201e-7
v -0.06250039269842222 0.3749998113316319 -0.062499222283712866
v -0.43749973819977 -0.5000004504672876 -0.06249994223276038
v -0.4374996945665387 -0.5000005159171346 5.776719010086584e-8
v -0.4375003926982395 0.49999948408207345 0.0000011049652286834744
v -0.4375004363314708 0.4999995495319204 -0.06249889503472181
v -0.49999973819973953 -0.5000004941005646 -0.06249989859957478
v -0.4999996945665082 -0.5000005595504116 1.0140037570716132e-7
v -0.5000003926982091 0.49999944044879646 0.0000011485984142897698
v -0.5000004363314403 0.4999995058986434 -0.0624988514015362
v 0.49999982546746014 0.18750013858147585 1.2321805752113502e-7
v 0.4999998691006914 0.1875000731316289 0.06250012321800802
v 0.4999997818342288 0.3125000731315299 0.06250025411776285
v 0.4999997382009975 0.3125001385813768 2.54117812341359e-7
v -0.5000001745320526 0.18749944044904396 8.213490272357404e-7
v -0.5000001308988212 0.187499374999197 0.06250082134897773
v -0.5000002181652838 0.312499374999098 0.06250095224873256
v -0.5000002617985151 0.31249944044894495 9.522487820559644e-7
v 0.5000001745333105 -0.31249986141812813 -4.003809617736387e-7
v 0.5000002181665417 -0.31249992686797506 0.06249959961898873
v 0.5000001309000792 -0.1874999268680741 0.06249973051874355
v 0.500000087266848 -0.18749986141822714 -2.694812069464758e-7
v -0.49999982546620214 -0.31250055955056 2.9775000794096673e-7
v -0.49999978183297084 -0.31250062500040693 0.06250029774995844
v -0.49999986909943345 -0.187500625000506 0.06250042864971327
v -0.49999991273266475 -0.18750055955065903 4.286497627681296e-7
v -0.18749976001650764 -0.5000002759342044 -0.06250008404056412
v -0.18749971638327634 -0.5000003413840513 -8.40406136209948e-8
v -0.18750037088174587 0.43749965861520623 8.977075475549712e-7
v -0.18750041451497712 0.4374997240650532 -0.06249910229240295
v -0.31249976001644664 -0.5000003632007584 -0.062499996774192906
v -0.3124997163832154 -0.5000004286506052 3.2257575985350506e-9
v -0.3125003708816848 0.43749957134865225 9.849739187675621e-7
v -0.31250041451491617 0.43749963679849924 -0.06249901502603174
v 0.3125002399832486 -0.4999999268679884 -0.06250043310604897
v 0.31250028361647986 -0.4999999923178353 -4.331060984852364e-7
v 0.31249962911801055 0.43750000768142217 5.486420626976685e-7
v 0.3124995854847792 0.4375000731312691 -0.0624994513578878
v 0.18750023998330956 -0.5000000141345424 -0.06250034583967776
v 0.18750028361654092 -0.5000000795843893 -3.4583972725876766e-7
v 0.1874996291180715 0.4374999204148682 6.359084339102594e-7
v 0.18749958548484025 0.43749998586471506 -0.062499364091516574
vt 0.875 0
vt 0.9375 0
vt 0.9375 1
vt 0.875 1
vt 0.0625 0
vt 0.125 0
vt 0.125 1
vt 0.0625 1
vt 0 1
vt 0.0625 1
vt 0.0625 0
vt 0 0
vt 0.9375 1
vt 1 1
vt 1 0
vt 0.9375 0
vt 0 0.5
vt 0.0625 0.5
vt 0.0625 0.4375
vt 0 0.4375
vt 0.0625 0.5
vt 0 0.5
vt 0 0.4375
vt 0.0625 0.4375
vt 0.4375 0
vt 0.5 0
vt 0.5 1
vt 0.4375 1
vt 0.6875 0
vt 0.75 0
vt 0.75 1
vt 0.6875 1
vt 0.5625 1
vt 0.4375 1
vt 0.4375 0
vt 0.5625 0
vt 0.4375 1
vt 0.5625 1
vt 0.5625 0
vt 0.4375 0
vt 0.5625 0.5
vt 0.4375 0.5
vt 0.4375 0.4375
vt 0.5625 0.4375
vt 0.5625 0.5
vt 0.4375 0.5
vt 0.4375 0.4375
vt 0.5625 0.4375
vt 0.875 0
vt 0.9375 0
vt 0.9375 1
vt 0.875 1
vt 0.0625 0
vt 0.125 0
vt 0.125 1
vt 0.0625 1
vt 0.9375 1
vt 1 1
vt 1 0
vt 0.9375 0
vt 0 1
vt 0.0625 1
vt 0.0625 0
vt 0 0
vt 1 0.5
vt 0.9375 0.5
vt 0.9375 0.4375
vt 1 0.4375
vt 1 0.5
vt 0.9375 0.5
vt 0.9375 0.4375
vt 1 0.4375
vt 0.875 0.6875
vt 0.9375 0.6875
vt 0.9375 0.8125
vt 0.875 0.8125
vt 0.125 0.6875
vt 0.1875 0.6875
vt 0.1875 0.8125
vt 0.125 0.8125
vt 0 0.6875
vt 0 0.8125
vt 1 0.8125
vt 1 0.6875
vt 1 0.6875
vt 1 0.8125
vt 0 0.8125
vt 0 0.6875
vt 0 0.6875
vt 1 0.6875
vt 1 0.625
vt 0 0.625
vt 0 0.75
vt 1 0.75
vt 1 0.6875
vt 0 0.6875
vt 0.875 0.1875
vt 0.9375 0.1875
vt 0.9375 0.3125
vt 0.875 0.3125
vt 0.125 0.1875
vt 0.1875 0.1875
vt 0.1875 0.3125
vt 0.125 0.3125
vt 0 0.1875
vt 0 0.3125
vt 1 0.3125
vt 1 0.1875
vt 1 0.1875
vt 1 0.3125
vt 0 0.3125
vt 0 0.1875
vt 0 0.1875
vt 1 0.1875
vt 1 0.125
vt 0 0.125
vt 0 0.25
vt 1 0.25
vt 1 0.1875
vt 0 0.1875
vt 0.5625 0
vt 0.625 0
vt 0.625 1
vt 0.5625 1
vt 0.6875 0
vt 0.75 0
vt 0.75 1
vt 0.6875 1
vt 0.8125 1
vt 0.6875 1
vt 0.6875 0
vt 0.8125 0
vt 0.1875 1
vt 0.3125 1
vt 0.3125 0
vt 0.1875 0
vt 0.6875 0.5
vt 0.5625 0.5
vt 0.5625 0.4375
vt 0.6875 0.4375
vt 0.6875 0.5
vt 0.8125 0.5
vt 0.8125 0.4375
vt 0.6875 0.4375
vt 0.1875 0
vt 0.25 0
vt 0.25 1
vt 0.1875 1
vt 0.3125 0
vt 0.375 0
vt 0.375 1
vt 0.3125 1
vt 0.3125 1
vt 0.1875 1
vt 0.1875 0
vt 0.3125 0
vt 0.6875 1
vt 0.8125 1
vt 0.8125 0
vt 0.6875 0
vt 0.3125 0.5
vt 0.1875 0.5
vt 0.1875 0.4375
vt 0.3125 0.4375
vt 0.3125 0.5
vt 0.1875 0.5
vt 0.1875 0.4375
vt 0.3125 0.4375
vn -0.9999999999995126 -6.981324318790997e-7 6.981309697153145e-7
vn -0.9999999999995126 -6.981324318790997e-7 6.981309697153145e-7
vn -6.98131700797675e-7 0.0000010471975511961515 -0.9999999999992082
vn -6.98131700797675e-7 0.0000010471975511961515 -0.9999999999992082
vn -6.981317007975049e-7 0.999999999999208 0.0000010471980385840228
vn -6.981317007975049e-7 0.999999999999208 0.0000010471980385840228
vn -0.9999999999995126 -6.981324318790997e-7 6.981309697153145e-7
vn -0.9999999999995126 -6.981324318790997e-7 6.981309697153145e-7
vn -6.98131700797675e-7 0.0000010471975511961515 -0.9999999999992082
vn -6.98131700797675e-7 0.0000010471975511961515 -0.9999999999992082
vn -6.981317007975049e-7 0.999999999999208 0.0000010471980385840228
vn -6.981317007975049e-7 0.999999999999208 0.0000010471980385840228
vn -0.9999999999995126 -6.981324318790997e-7 6.981309697153145e-7
vn -0.9999999999995126 -6.981324318790997e-7 6.981309697153145e-7
vn -6.98131700797675e-7 0.0000010471975511961515 -0.9999999999992082
vn -6.98131700797675e-7 0.0000010471975511961515 -0.9999999999992082
vn -6.981317007975049e-7 0.999999999999208 0.0000010471980385840228
vn -6.981317007975049e-7 0.999999999999208 0.0000010471980385840228
vn -0.9999999999995126 -6.981324318790997e-7 6.981309697153145e-7
vn -0.9999999999995126 -6.981324318790997e-7 6.981309697153145e-7
vn 6.98131700797675e-7 -0.0000010471975511961515 0.9999999999992082
vn 6.98131700797675e-7 -0.0000010471975511961515 0.9999999999992082
vn -6.981317007975049e-7 0.999999999999208 0.0000010471980385840228
vn -6.981317007975049e-7 0.999999999999208 0.0000010471980385840228
vn -0.9999999999995126 -6.981324318790997e-7 6.981309697153145e-7
vn -0.9999999999995126 -6.981324318790997e-7 6.981309697153145e-7
vn 6.98131700797675e-7 -0.0000010471975511961515 0.9999999999992082
vn 6.98131700797675e-7 -0.0000010471975511961515 0.9999999999992082
vn -6.981317007975049e-7 0.999999999999208 0.0000010471980385840228
vn -6.981317007975049e-7 0.999999999999208 0.0000010471980385840228
vn -0.9999999999995126 -6.981324319383116e-7 6.981309697153144e-7
vn -0.9999999999995126 -6.981324318198868e-7 6.981309688271362e-7
vn -6.98131700797675e-7 0.0000010471975511961515 -0.9999999999992082
vn -6.98131700797675e-7 0.0000010471975511961515 -0.9999999999992082
vn -6.981317007975049e-7 0.999999999999208 0.0000010471980385840228
vn -6.981317007975042e-7 0.999999999999208 0.0000010471980394722013
vn -0.9999999999995126 -6.981324316422521e-7 6.981309697153147e-7
vn -0.9999999999995126 -6.981324317606778e-7 6.981309714916714e-7
vn -6.98131700797675e-7 0.0000010471975511961515 -0.9999999999992082
vn -6.98131700797675e-7 0.000001047197551203553 -0.9999999999992082
vn -6.981317007975049e-7 0.999999999999208 0.0000010471980385840228
vn -6.981317007975049e-7 0.999999999999208 0.0000010471980385840228
usemtl m_966d7dcc-661b-5377-a2ab-8a5fa7d1fda5
f 17/49/13 18/50/13 19/51/13 20/52/13
f 21/53/14 22/54/14 23/55/14 24/56/14
f 24/57/15 20/58/15 17/59/15 21/60/15
f 23/61/16 19/62/16 18/63/16 22/64/16
f 22/65/17 18/66/17 17/67/17 21/68/17
f 23/69/18 19/70/18 20/71/18 24/72/18
f 25/73/19 26/74/19 27/75/19 28/76/19
f 29/77/20 30/78/20 31/79/20 32/80/20
f 32/81/21 28/82/21 25/83/21 29/84/21
f 31/85/22 27/86/22 26/87/22 30/88/22
f 30/89/23 26/90/23 25/91/23 29/92/23
f 31/93/24 27/94/24 28/95/24 32/96/24
f 33/97/25 34/98/25 35/99/25 36/100/25
f 37/101/26 38/102/26 39/103/26 40/104/26
f 40/105/27 36/106/27 33/107/27 37/108/27
f 39/109/28 35/110/28 34/111/28 38/112/28
f 38/113/29 34/114/29 33/115/29 37/116/29
f 39/117/30 35/118/30 36/119/30 40/120/30
f 41/121/31 42/122/31 43/123/31 44/124/31
f 45/125/32 46/126/32 47/127/32 48/128/32
f 41/129/33 44/130/33 48/131/33 45/132/33
f 42/133/34 43/134/34 47/135/34 46/136/34
f 46/137/35 42/138/35 41/139/35 45/140/35
f 47/141/36 43/142/36 44/143/36 48/144/36
f 49/145/37 50/146/37 51/147/37 52/148/37
f 53/149/38 54/150/38 55/151/38 56/152/38
f 49/153/39 52/154/39 56/155/39 53/156/39
f 50/157/40 51/158/40 55/159/40 54/160/40
f 54/161/41 50/162/41 49/163/41 53/164/41
f 55/165/42 51/166/42 52/167/42 56/168/42
f 57/169/43 58/170/43 59/171/43 60/172/43
f 61/173/44 62/174/44 63/175/44 64/176/44
f 64/177/45 60/178/45 57/179/45 61/180/45
f 63/181/46 59/182/46 58/183/46 62/184/46
f 62/185/47 58/186/47 57/187/47 61/188/47
f 63/189/48 59/190/48 60/191/48 64/192/48
f 65/193/49 66/194/49 67/195/49 68/196/49
f 69/197/50 70/198/50 71/199/50 72/200/50
f 72/201/51 68/202/51 65/203/51 69/204/51
f 71/205/52 67/206/52 66/207/52 70/208/52
f 70/209/53 66/210/53 65/211/53 69/212/53
f 71/213/54 67/214/54 68/215/54 72/216/54