# Made in Blockbench 5.1.6
mtllib fancy_picket_gate_open.mtl

o post
v 0.625 -0.49375 -0.06875
v 0.625 -0.49375 0.05625
v 0.625 0.50625 0.05625
v 0.625 0.50625 -0.06875
v 0.5 -0.49375 -0.06875
v 0.5 -0.49375 0.05625
v 0.5 0.50625 0.05625
v 0.5 0.50625 -0.06875
v -0.5 -0.49375 -0.06875
v -0.5 -0.49375 0.05625
v -0.5 0.50625 0.05625
v -0.5 0.50625 -0.06875
v -0.625 -0.49375 -0.06875
v -0.625 -0.49375 0.05625
v -0.625 0.50625 0.05625
v -0.625 0.50625 -0.06875
vt 0.4375 1
vt 0.4375 0
vt 0.5625 0
vt 0.5625 1
vt 0.4375 0
vt 0.5625 0
vt 0.5625 1
vt 0.4375 1
vt 0 0
vt 0 1
vt 0.125 1
vt 0.125 0
vt 0.125 0
vt 0.125 1
vt 0 1
vt 0 0
vt 0.125 0.4375
vt 0 0.4375
vt 0 0.5625
vt 0.125 0.5625
vt 0.125 0.5625
vt 0 0.5625
vt 0 0.4375
vt 0.125 0.4375
vt 0.4375 1
vt 0.4375 0
vt 0.5625 0
vt 0.5625 1
vt 0.5625 1
vt 0.5625 0
vt 0.4375 0
vt 0.4375 1
vt 1 1
vt 0.875 1
vt 0.875 0
vt 1 0
vt 0.125 0
vt 0.125 1
vt 0 1
vt 0 0
vt 1 0.4375
vt 0.875 0.4375
vt 0.875 0.5625
vt 1 0.5625
vt 1 0.5625
vt 0.875 0.5625
vt 0.875 0.4375
vt 1 0.4375
vn 1 0 0
vn -1 0 0
vn 0 0 1
vn 0 0 1
vn 0 1 0
vn 0 1 0
vn 1 0 0
vn 1 0 0
vn 0 0 -1
vn 0 0 1
vn 0 1 0
vn 0 1 0
usemtl m_cebedf6d-0686-daac-82ce-c196b54e7844
f 3/1/1 2/2/1 1/3/1 4/4/1
f 5/5/2 6/6/2 7/7/2 8/8/2
f 1/9/3 4/10/3 8/11/3 5/12/3
f 2/13/4 3/14/4 7/15/4 6/16/4
f 6/17/5 2/18/5 1/19/5 5/20/5
f 7/21/6 3/22/6 4/23/6 8/24/6
f 11/25/7 10/26/7 9/27/7 12/28/7
f 15/29/8 14/30/8 13/31/8 16/32/8
f 16/33/9 12/34/9 9/35/9 13/36/9
f 10/37/10 11/38/10 15/39/10 14/40/10
f 14/41/11 10/42/11 9/43/11 13/44/11
f 15/45/12 11/46/12 12/47/12 16/48/12
o gate_selection
v -0.3750006249999999 -0.5000008861522236 0.8749998493349987
v -0.4375006249999999 -0.5000008861522236 0.8749998493349987
v -0.4375006249999999 0.437499113847728 0.8750001506645155
v -0.3750006249999999 0.437499113847728 0.8750001506645155
v -0.3750006249999999 -0.5000008459749548 0.7499998493350052
v -0.4375006249999999 -0.5000008459749548 0.7499998493350052
v -0.4375006249999999 0.4374991540249969 0.750000150664522
v -0.3750006249999999 0.4374991540249969 0.750000150664522
v -0.375000625 -0.500000725443148 0.3749998493350245
v -0.437500625 -0.500000725443148 0.3749998493350245
v -0.437500625 0.4374992745568036 0.3750001506645412
v -0.375000625 0.43749927455680365 0.37500015066454123
v -0.375000625 -0.500000685265879 0.249999849335031
v -0.437500625 -0.500000685265879 0.24999984933503094
v -0.437500625 0.4374993147340725 0.2500001506645477
v -0.375000625 0.43749931473407255 0.25000015066454767
v -0.3750005922750764 -0.5000009464181587 1.0624998711516276
v -0.4375005922750764 -0.5000009464181587 1.0624998711516276
v -0.4375005922750764 0.49999905358178953 1.0625001925697788
v -0.3750005922750764 0.49999905358178953 1.0625001925697788
v -0.3750005922750764 -0.5000009263295242 0.9999998711516307
v -0.4375005922750764 -0.5000009263295242 0.9999998711516308
v -0.4375005922750764 0.49999907367042395 1.000000192569782
v -0.3750005922750764 0.49999907367042395 1.000000192569782
v -0.3750006577249234 -0.5000008057976539 0.6249998275183731
v -0.4375006577249234 -0.5000008057976539 0.6249998275183731
v -0.4375006577249234 0.37499919420230077 0.6250001087592554
v -0.3750006577249234 0.3749991942023008 0.6250001087592554
v -0.3750006577249234 -0.500000765620385 0.49999982751837957
v -0.4375006577249234 -0.5000007656203851 0.49999982751837957
v -0.4375006577249234 0.37499923437956967 0.5000001087592618
v -0.3750006577249234 0.3749992343795697 0.5000001087592618
v -0.37500059227507654 -0.500000645088642 0.12499987115167588
v -0.43750059227507654 -0.5000006450886421 0.12499987115167584
v -0.43750059227507654 0.4999993549113064 0.12500019256982714
v -0.37500059227507654 0.4999993549113064 0.12500019256982706
v -0.37500059227507654 -0.5000006250000075 0.06249987115167912
v -0.43750059227507654 -0.5000006250000075 0.062499871151679126
v -0.43750059227507654 0.49999937499994085 0.06250019256983019
v -0.37500059227507654 0.49999937499994085 0.06250019256983029
v -0.4375005922750764 0.1874990535818058 1.0625000921266063
v -0.5000005922750764 0.18749905358180577 1.0625000921266063
v -0.5000005922750764 0.3124990535817993 1.0625001323038752
v -0.4375005922750764 0.31249905358179925 1.0625001323038754
v -0.43750059227507654 0.18749937499995695 0.06250009212665796
v -0.5000005922750765 0.18749937499995695 0.06250009212665807
v -0.5000005922750765 0.3124993749999505 0.06250013230392697
v -0.43750059227507654 0.3124993749999505 0.06250013230392695
v -0.4375005922750764 -0.31250094641816833 1.0624999314175305
v -0.5000005922750764 -0.31250094641816833 1.0624999314175305
v -0.5000005922750764 -0.18750094641817483 1.0624999715947996
v -0.4375005922750764 -0.1875009464181748 1.0624999715947996
v -0.43750059227507654 -0.31250062500001713 0.06249993141758248
v -0.5000005922750765 -0.31250062500001713 0.062499931417582484
v -0.5000005922750765 -0.18750062500002365 0.06249997159485138
v -0.43750059227507654 -0.18750062500002365 0.06249997159485137
vt 0.1875 0
vt 0.25 0
vt 0.25 1
vt 0.1875 1
vt 0.3125 0
vt 0.375 0
vt 0.375 1
vt 0.3125 1
vt 0.3125 1
vt 0.1875 1
vt 0.1875 0
vt 0.3125 0
vt 0.6875 1
vt 0.8125 1
vt 0.8125 0
vt 0.6875 0
vt 0.3125 0.5
vt 0.1875 0.5
vt 0.1875 0.4375
vt 0.3125 0.4375
vt 0.3125 0.5
vt 0.1875 0.5
vt 0.1875 0.4375
vt 0.3125 0.4375
vt 0.5625 0
vt 0.625 0
vt 0.625 1
vt 0.5625 1
vt 0.6875 0
vt 0.75 0
vt 0.75 1
vt 0.6875 1
vt 0.8125 1
vt 0.6875 1
vt 0.6875 0
vt 0.8125 0
vt 0.1875 1
vt 0.3125 1
vt 0.3125 0
vt 0.1875 0
vt 0.6875 0.5
vt 0.5625 0.5
vt 0.5625 0.4375
vt 0.6875 0.4375
vt 0.6875 0.5
vt 0.8125 0.5
vt 0.8125 0.4375
vt 0.6875 0.4375
vt 0.875 0
vt 0.9375 0
vt 0.9375 1
vt 0.875 1
vt 0.0625 0
vt 0.125 0
vt 0.125 1
vt 0.0625 1
vt 0 1
vt 0.0625 1
vt 0.0625 0
vt 0 0
vt 0.9375 1
vt 1 1
vt 1 0
vt 0.9375 0
vt 0 0.5
vt 0.0625 0.5
vt 0.0625 0.4375
vt 0 0.4375
vt 0.0625 0.5
vt 0 0.5
vt 0 0.4375
vt 0.0625 0.4375
vt 0.4375 0
vt 0.5 0
vt 0.5 1
vt 0.4375 1
vt 0.6875 0
vt 0.75 0
vt 0.75 1
vt 0.6875 1
vt 0.5625 1
vt 0.4375 1
vt 0.4375 0
vt 0.5625 0
vt 0.4375 1
vt 0.5625 1
vt 0.5625 0
vt 0.4375 0
vt 0.5625 0.5
vt 0.4375 0.5
vt 0.4375 0.4375
vt 0.5625 0.4375
vt 0.5625 0.5
vt 0.4375 0.5
vt 0.4375 0.4375
vt 0.5625 0.4375
vt 0.875 0
vt 0.9375 0
vt 0.9375 1
vt 0.875 1
vt 0.0625 0
vt 0.125 0
vt 0.125 1
vt 0.0625 1
vt 0.9375 1
vt 1 1
vt 1 0
vt 0.9375 0
vt 0 1
vt 0.0625 1
vt 0.0625 0
vt 0 0
vt 1 0.5
vt 0.9375 0.5
vt 0.9375 0.4375
vt 1 0.4375
vt 1 0.5
vt 0.9375 0.5
vt 0.9375 0.4375
vt 1 0.4375
vt 0.875 0.6875
vt 0.9375 0.6875
vt 0.9375 0.8125
vt 0.875 0.8125
vt 0.125 0.6875
vt 0.1875 0.6875
vt 0.1875 0.8125
vt 0.125 0.8125
vt 0 0.6875
vt 0 0.8125
vt 1 0.8125
vt 1 0.6875
vt 1 0.6875
vt 1 0.8125
vt 0 0.8125
vt 0 0.6875
vt 0 0.6875
vt 1 0.6875
vt 1 0.625
vt 0 0.625
vt 0 0.75
vt 1 0.75
vt 1 0.6875
vt 0 0.6875
vt 0.875 0.1875
vt 0.9375 0.1875
vt 0.9375 0.3125
vt 0.875 0.3125
vt 0.125 0.1875
vt 0.1875 0.1875
vt 0.1875 0.3125
vt 0.125 0.3125
vt 0 0.1875
vt 0 0.3125
vt 1 0.3125
vt 1 0.1875
vt 1 0.1875
vt 1 0.3125
vt 0 0.3125
vt 0 0.1875
vt 0 0.1875
vt 1 0.1875
vt 1 0.125
vt 0 0.125
vt 0 0.25
vt 1 0.25
vt 1 0.1875
vt 0 0.1875
vn -1.1102230246256096e-16 3.2141815117265495e-7 -0.9999999999999484
vn -1.1102230246256096e-16 3.2141815117265495e-7 -0.9999999999999484
vn 1 1.4156370160321516e-22 -1.1102230246247589e-16
vn 1 1.4156370160321516e-22 -1.1102230246247589e-16
vn -1.2313409441374002e-22 0.9999999999999484 3.2141815117265495e-7
vn -1.2313409441374002e-22 0.9999999999999484 3.2141815117265495e-7
vn -1.1102230246256096e-16 3.2141815111344306e-7 -0.9999999999999484
vn 7.771561172375642e-16 3.2141815123186684e-7 -0.9999999999999484
vn 1 1.4156370160321516e-22 -1.1102230246247589e-16
vn 1 1.4156370160321516e-22 -1.1102230246247589e-16
vn -1.2313409441374002e-22 0.9999999999999484 3.2141815117265495e-7
vn -8.881785428342197e-16 0.9999999999999484 3.2141815117265495e-7
vn -1.1102230246256096e-16 3.2141815117265495e-7 -0.9999999999999484
vn -1.887379141862812e-15 3.2141815117265495e-7 -0.9999999999999484
vn 1 1.4156370160321516e-22 -1.1102230246247589e-16
vn 1 1.4156370160321516e-22 -1.1102230246247589e-16
vn -1.231340942165248e-22 0.9999999999999484 3.214181529490118e-7
vn -1.2313409441374002e-22 0.9999999999999484 3.2141815117265495e-7
vn -1.1102230246256074e-16 3.2141815104577233e-7 -0.9999999999999484
vn -1.1102230246256096e-16 3.2141815117265495e-7 -0.9999999999999484
vn 1 1.4156370160321516e-22 -1.1102230246247589e-16
vn 1 7.930288183017864e-18 -5.5511148682322135e-17
vn -1.776356962534345e-15 0.9999999999999484 3.2141815117265495e-7
vn -8.881785428342197e-16 0.9999999999999484 3.2141815117265495e-7
vn 7.771561172375642e-16 3.2141815128367726e-7 -0.9999999999999484
vn -1.1102230246256096e-16 3.2141815106163265e-7 -0.9999999999999484
vn 1 1.4156370160321516e-22 -1.1102230246247589e-16
vn 1 1.4156370160321516e-22 -1.1102230246247589e-16
vn -1.776356962534345e-15 0.9999999999999484 3.2141815117265495e-7
vn -1.2313409441374002e-22 0.9999999999999484 3.2141815117265495e-7
vn -1.1102230246256018e-16 3.214181493962981e-7 -0.9999999999999484
vn -1.887379141862812e-15 3.2141815117265495e-7 -0.9999999999999484
vn -1 5.5511009667553385e-17 1.110223203047675e-16
vn -1 -1.4156370160321516e-22 1.1102230246247589e-16
vn -4.440893329841572e-16 0.9999999999999484 3.2141815120041053e-7
vn 8.881782965660308e-16 0.9999999999999484 3.2141815117265495e-7
vn -1.1102230246256096e-16 3.214181529490118e-7 -0.9999999999999484
vn -1.1102230246256096e-16 3.2141815117265495e-7 -0.9999999999999484
vn -1 -5.551129279495657e-17 1.1102228462018429e-16
vn -1 -1.4156370160321516e-22 1.1102230246247589e-16
vn -1.2313409441374002e-22 0.9999999999999484 3.2141815117265495e-7
vn -4.440893329841572e-16 0.9999999999999484 3.2141815120041053e-7
usemtl m_966d7dcc-661b-5377-a2ab-8a5fa7d1fda5
f 17/49/13 18/50/13 19/51/13 20/52/13
f 21/53/14 22/54/14 23/55/14 24/56/14
f 24/57/15 20/58/15 17/59/15 21/60/15
f 23/61/16 19/62/16 18/63/16 22/64/16
f 22/65/17 18/66/17 17/67/17 21/68/17
f 23/69/18 19/70/18 20/71/18 24/72/18
f 25/73/19 26/74/19 27/75/19 28/76/19
f 29/77/20 30/78/20 31/79/20 32/80/20
f 32/81/21 28/82/21 25/83/21 29/84/21
f 31/85/22 27/86/22 26/87/22 30/88/22
f 30/89/23 26/90/23 25/91/23 29/92/23
f 31/93/24 27/94/24 28/95/24 32/96/24
f 33/97/25 34/98/25 35/99/25 36/100/25
f 37/101/26 38/102/26 39/103/26 40/104/26
f 40/105/27 36/106/27 33/107/27 37/108/27
f 39/109/28 35/110/28 34/111/28 38/112/28
f 38/113/29 34/114/29 33/115/29 37/116/29
f 39/117/30 35/118/30 36/119/30 40/120/30
f 41/121/31 42/122/31 43/123/31 44/124/31
f 45/125/32 46/126/32 47/127/32 48/128/32
f 48/129/33 44/130/33 41/131/33 45/132/33
f 47/133/34 43/134/34 42/135/34 46/136/34
f 46/137/35 42/138/35 41/139/35 45/140/35
f 47/141/36 43/142/36 44/143/36 48/144/36
f 49/145/37 50/146/37 51/147/37 52/148/37
f 53/149/38 54/150/38 55/151/38 56/152/38
f 56/153/39 52/154/39 49/155/39 53/156/39
f 55/157/40 51/158/40 50/159/40 54/160/40
f 54/161/41 50/162/41 49/163/41 53/164/41
f 55/165/42 51/166/42 52/167/42 56/168/42
f 57/169/43 58/170/43 59/171/43 60/172/43
f 61/173/44 62/174/44 63/175/44 64/176/44
f 57/177/45 60/178/45 64/179/45 61/180/45
f 58/181/46 59/182/46 63/183/46 62/184/46
f 62/185/47 58/186/47 57/187/47 61/188/47
f 63/189/48 59/190/48 60/191/48 64/192/48
f 65/193/49 66/194/49 67/195/49 68/196/49
f 69/197/50 70/198/50 71/199/50 72/200/50
f 65/201/51 68/202/51 72/203/51 69/204/51
f 66/205/52 67/206/52 71/207/52 70/208/52
f 70/209/53 66/210/53 65/211/53 69/212/53
f 71/213/54 67/214/54 68/215/54 72/216/54