# Made in Blockbench 5.1.6
mtllib picket_gate_half_open.mtl

g post
v 0.625 -0.49375 -0.06875
v 0.625 -0.49375 0.05625
v 0.625 0.50625 0.05625
v 0.625 0.50625 -0.06875
v 0.5 -0.49375 -0.06875
v 0.5 -0.49375 0.05625
v 0.5 0.50625 0.05625
v 0.5 0.50625 -0.06875
v -0.5 -0.49375 -0.06875
v -0.5 -0.49375 0.05625
v -0.5 0.50625 0.05625
v -0.5 0.50625 -0.06875
v -0.625 -0.49375 -0.06875
v -0.625 -0.49375 0.05625
v -0.625 0.50625 0.05625
v -0.625 0.50625 -0.06875
vt 0.4375 1
vt 0.4375 0
vt 0.5625 0
vt 0.5625 1
vt 0.4375 0
vt 0.5625 0
vt 0.5625 1
vt 0.4375 1
vt 0 0
vt 0 1
vt 0.125 1
vt 0.125 0
vt 0.125 0
vt 0.125 1
vt 0 1
vt 0 0
vt 0.125 0.4375
vt 0 0.4375
vt 0 0.5625
vt 0.125 0.5625
vt 0.125 0.5625
vt 0 0.5625
vt 0 0.4375
vt 0.125 0.4375
vt 0.4375 1
vt 0.4375 0
vt 0.5625 0
vt 0.5625 1
vt 0.5625 1
vt 0.5625 0
vt 0.4375 0
vt 0.4375 1
vt 1 1
vt 0.875 1
vt 0.875 0
vt 1 0
vt 0.125 0
vt 0.125 1
vt 0 1
vt 0 0
vt 1 0.4375
vt 0.875 0.4375
vt 0.875 0.5625
vt 1 0.5625
vt 1 0.5625
vt 0.875 0.5625
vt 0.875 0.4375
vt 1 0.4375
vn 1 0 0
vn -1 0 0
vn 0 0 1
vn 0 0 1
vn 0 1 0
vn 0 1 0
vn 1 0 0
vn 1 0 0
vn 0 0 -1
vn 0 0 1
vn 0 1 0
vn 0 1 0
usemtl m_cebedf6d-0686-daac-82ce-c196b54e7844
f 3/1/1 2/2/1 1/3/1 4/4/1
f 5/5/2 6/6/2 7/7/2 8/8/2
f 1/9/3 4/10/3 8/11/3 5/12/3
f 2/13/4 3/14/4 7/15/4 6/16/4
f 6/17/5 2/18/5 1/19/5 5/20/5
f 7/21/6 3/22/6 4/23/6 8/24/6
f 11/25/7 10/26/7 9/27/7 12/28/7
f 15/29/8 14/30/8 13/31/8 16/32/8
f 16/33/9 12/34/9 9/35/9 13/36/9
f 10/37/10 11/38/10 15/39/10 14/40/10
f 14/41/11 10/42/11 9/43/11 13/44/11
f 15/45/12 11/46/12 12/47/12 16/48/12
g gate
v 0.2954949337200937 -0.5000005747890529 0.6812185987078951
v 0.2513007598959345 -0.5000006210690835 0.7254127725320302
v 0.25130026624227475 0.4999993789306414 0.7254133260759216
v 0.295494440066434 0.49999942521067203 0.6812191522517865
v 0.25130075989594525 -0.5000005721422536 0.6370244248837252
v 0.207106586071786 -0.5000006184222842 0.6812185987078603
v 0.20710609241812628 0.4999993815774407 0.6812191522517517
v 0.2513002662422855 0.49999942785747137 0.6370249784276166
v 0.1629124122476484 -0.500000566848655 0.5486360772353855
v 0.11871823842348928 -0.5000006131286856 0.5928302510595205
v 0.11871774476982955 0.49999938687103934 0.5928308046034119
v 0.16291191859398868 0.49999943315107 0.5486366307792769
v 0.07452406459935157 -0.5000005615550563 0.46024772958704563
v 0.030329890775192325 -0.5000006078350869 0.5044419034111807
v 0.030329397121532486 0.49999939216463796 0.5044424569550721
v 0.07452357094569173 0.4999994384446686 0.460248283130937
v -0.01386428304894527 -0.5000005562614578 0.3718593819387058
v -0.058058456873104514 -0.5000006025414884 0.4160535557628408
v -0.05805895052676435 0.49999939745823657 0.4160541093067322
v -0.013864776702605108 0.4999994437382672 0.3718599354825972
v -0.10225263069724222 -0.5000005509678591 0.283471034290366
v -0.14644680452140146 -0.5000005972478897 0.327665208114501
v -0.1464472981750613 0.4999994027518352 0.3276657616583924
v -0.10225312435090206 0.49999944903186583 0.2834715878342574
v -0.19064097834553917 -0.5000005456742606 0.19508268664202616
v -0.23483515216969836 -0.5000005919542911 0.23927686046616112
v -0.23483564582335814 0.4999994080454338 0.2392774140100525
v -0.1906414719991989 0.49999945432546444 0.19508324018591755
v -0.279029325993836 -0.5000005403806619 0.10669433899368634
v -0.32322349981799525 -0.5000005866606925 0.1508885128178213
v -0.32322399347165504 0.4999994133390324 0.1508890663617127
v -0.27902981964749585 0.49999945961906306 0.10669489253757773
v -0.36741767364213296 -0.5000005350870633 0.018305991345346516
v -0.41161184746629215 -0.5000005813670939 0.0625001651694815
v -0.41161234111995193 0.49999941863263103 0.0625007187133729
v -0.3674181672957927 0.4999994649126617 0.01830654488923792
v -0.4116118474662814 -0.500000532440264 -0.025888182478823393
v -0.45580602129044057 -0.5000005787202946 0.018305991345311586
v -0.4558065149441004 0.4999994212794303 0.01830654488920299
v -0.41161234111994116 0.49999946755946095 -0.02588762893493199
v 0.25130042050904344 0.18749937893072735 0.7254131530934554
v 0.2071062466848843 0.18749933265069674 0.7696073269175904
v 0.2071061849781768 0.3124993326506624 0.7696073961105768
v 0.2513003588023359 0.31249937893069296 0.7254132222864419
v -0.4558063606773317 0.18749942127951624 0.018306371906736923
v -0.500000534501491 0.18749937499948563 0.06250054573087191
v -0.5000005962081984 0.3124993749994513 0.06250061492385833
v -0.4558064223840392 0.3124994212794819 0.018306441099723354
v 0.2513006673358733 -0.3125006210691352 0.7254128763215097
v 0.20710649351171417 -0.31250066734916576 0.7696070501456447
v 0.20710643180500665 -0.18750066734920012 0.7696071193386311
v 0.2513006056291658 -0.1875006210691695 0.7254129455144962
v -0.4558061138505018 -0.31250057872034626 0.018306095134791228
v -0.500000287674661 -0.31250062500037684 0.06250026895892621
v -0.5000003493813685 -0.18750062500041123 0.06250033815191264
v -0.45580617555720926 -0.18750057872038062 0.018306164327777652
vt 0.875 0
vt 0.9375 0
vt 0.9375 1
vt 0.875 1
vt 0.0625 0
vt 0.125 0
vt 0.125 1
vt 0.0625 1
vt 0 1
vt 0.0625 1
vt 0.0625 0
vt 0 0
vt 0.9375 1
vt 1 1
vt 1 0
vt 0.9375 0
vt 0 0.5
vt 0.0625 0.5
vt 0.0625 0.4375
vt 0 0.4375
vt 0.0625 0.5
vt 0 0.5
vt 0 0.4375
vt 0.0625 0.4375
vt 0.1875 0
vt 0.25 0
vt 0.25 1
vt 0.1875 1
vt 0.3125 0
vt 0.375 0
vt 0.375 1
vt 0.3125 1
vt 0.3125 1
vt 0.1875 1
vt 0.1875 0
vt 0.3125 0
vt 0.6875 1
vt 0.8125 1
vt 0.8125 0
vt 0.6875 0
vt 0.3125 0.5
vt 0.1875 0.5
vt 0.1875 0.4375
vt 0.3125 0.4375
vt 0.3125 0.5
vt 0.1875 0.5
vt 0.1875 0.4375
vt 0.3125 0.4375
vt 0.4375 0
vt 0.5 0
vt 0.5 1
vt 0.4375 1
vt 0.6875 0
vt 0.75 0
vt 0.75 1
vt 0.6875 1
vt 0.5625 1
vt 0.4375 1
vt 0.4375 0
vt 0.5625 0
vt 0.4375 1
vt 0.5625 1
vt 0.5625 0
vt 0.4375 0
vt 0.5625 0.5
vt 0.4375 0.5
vt 0.4375 0.4375
vt 0.5625 0.4375
vt 0.5625 0.5
vt 0.4375 0.5
vt 0.4375 0.4375
vt 0.5625 0.4375
vt 0.5625 0
vt 0.625 0
vt 0.625 1
vt 0.5625 1
vt 0.6875 0
vt 0.75 0
vt 0.75 1
vt 0.6875 1
vt 0.8125 1
vt 0.6875 1
vt 0.6875 0
vt 0.8125 0
vt 0.1875 1
vt 0.3125 1
vt 0.3125 0
vt 0.1875 0
vt 0.6875 0.5
vt 0.5625 0.5
vt 0.5625 0.4375
vt 0.6875 0.4375
vt 0.6875 0.5
vt 0.8125 0.5
vt 0.8125 0.4375
vt 0.6875 0.4375
vt 0.875 0
vt 0.9375 0
vt 0.9375 1
vt 0.875 1
vt 0.0625 0
vt 0.125 0
vt 0.125 1
vt 0.0625 1
vt 0.9375 1
vt 1 1
vt 1 0
vt 0.9375 0
vt 0 1
vt 0.0625 1
vt 0.0625 0
vt 0 0
vt 1 0.5
vt 0.9375 0.5
vt 0.9375 0.4375
vt 1 0.4375
vt 1 0.5
vt 0.9375 0.5
vt 0.9375 0.4375
vt 1 0.4375
vt 0.875 0.6875
vt 0.9375 0.6875
vt 0.9375 0.8125
vt 0.875 0.8125
vt 0.125 0.6875
vt 0.1875 0.6875
vt 0.1875 0.8125
vt 0.125 0.8125
vt 0 0.6875
vt 0 0.8125
vt 1 0.8125
vt 1 0.6875
vt 1 0.6875
vt 1 0.8125
vt 0 0.8125
vt 0 0.6875
vt 0 0.6875
vt 1 0.6875
vt 1 0.625
vt 0 0.625
vt 0 0.75
vt 1 0.75
vt 1 0.6875
vt 0 0.6875
vt 0.875 0.1875
vt 0.9375 0.1875
vt 0.9375 0.3125
vt 0.875 0.3125
vt 0.125 0.1875
vt 0.1875 0.1875
vt 0.1875 0.3125
vt 0.125 0.3125
vt 0 0.1875
vt 0 0.3125
vt 1 0.3125
vt 1 0.1875
vt 1 0.1875
vt 1 0.3125
vt 0 0.3125
vt 0 0.1875
vt 0 0.1875
vt 1 0.1875
vt 1 0.125
vt 0 0.125
vt 0 0.25
vt 1 0.25
vt 1 0.1875
vt 0 0.1875
vn -0.7071067811863752 4.234878889545306e-8 -0.7071067811867185
vn -0.7071067811863752 4.234878889545306e-8 -0.7071067811867185
vn 0.7071067811865476 7.404804896929257e-7 -0.7071067811861599
vn 0.7071067811865476 7.404804896929257e-7 -0.7071067811861599
vn -4.936536597953337e-7 0.9999999999997251 5.535438914010879e-7
vn -4.936536597953337e-7 0.9999999999997251 5.535438914010879e-7
vn -0.7071067811863752 4.234878889545306e-8 -0.7071067811867185
vn -0.7071067811863752 4.234878889545306e-8 -0.7071067811867185
vn 0.7071067811865476 7.404804896929257e-7 -0.7071067811861599
vn 0.7071067811865476 7.404804896929257e-7 -0.7071067811861599
vn -4.936536597953337e-7 0.9999999999997251 5.535438914010879e-7
vn -4.936536597953337e-7 0.9999999999997251 5.535438914010879e-7
vn -0.7071067811863752 4.234878889545306e-8 -0.7071067811867185
vn -0.7071067811863752 4.234878889545306e-8 -0.7071067811867185
vn 0.7071067811865476 7.404804896929257e-7 -0.7071067811861599
vn 0.7071067811865476 7.404804896929257e-7 -0.7071067811861599
vn -4.936536597953337e-7 0.9999999999997251 5.535438914010879e-7
vn -4.936536597953337e-7 0.9999999999997251 5.535438914010879e-7
vn -0.7071067811863752 4.234878889545306e-8 -0.7071067811867185
vn -0.7071067811863752 4.234878889545306e-8 -0.7071067811867185
vn 0.7071067811865476 7.404804896929257e-7 -0.7071067811861599
vn 0.7071067811865476 7.404804896929257e-7 -0.7071067811861599
vn -4.936536597953337e-7 0.9999999999997251 5.535438914010879e-7
vn -4.936536597953337e-7 0.9999999999997251 5.535438914010879e-7
vn -0.7071067811863752 4.234878889545306e-8 -0.7071067811867185
vn -0.7071067811863752 4.234878889545306e-8 -0.7071067811867185
vn 0.7071067811865476 7.404804896929257e-7 -0.7071067811861599
vn 0.7071067811865476 7.404804896929257e-7 -0.7071067811861599
vn -4.936536597953337e-7 0.9999999999997251 5.535438914010879e-7
vn -4.936536597953337e-7 0.9999999999997251 5.535438914010879e-7
vn -0.7071067811863752 4.234878889545306e-8 -0.7071067811867185
vn -0.7071067811863752 4.234878889545306e-8 -0.7071067811867185
vn -0.7071067811865476 -7.404804896929257e-7 0.7071067811861599
vn -0.7071067811865476 -7.404804896929257e-7 0.7071067811861599
vn -4.936536597953337e-7 0.9999999999997251 5.535438914010879e-7
vn -4.936536597953337e-7 0.9999999999997251 5.535438914010879e-7
vn -0.7071067811863752 4.234878889545306e-8 -0.7071067811867185
vn -0.7071067811863752 4.234878889545306e-8 -0.7071067811867185
vn -0.7071067811865476 -7.404804896929257e-7 0.7071067811861599
vn -0.7071067811865476 -7.404804896929257e-7 0.7071067811861599
vn -4.936536597953337e-7 0.9999999999997251 5.535438914010879e-7
vn -4.936536597953337e-7 0.9999999999997251 5.535438914010879e-7
usemtl m_966d7dcc-661b-5377-a2ab-8a5fa7d1fda5
f 17/49/13 18/50/13 19/51/13 20/52/13
f 21/53/14 22/54/14 23/55/14 24/56/14
f 24/57/15 20/58/15 17/59/15 21/60/15
f 23/61/16 19/62/16 18/63/16 22/64/16
f 22/65/17 18/66/17 17/67/17 21/68/17
f 23/69/18 19/70/18 20/71/18 24/72/18
f 25/73/19 26/74/19 27/75/19 28/76/19
f 29/77/20 30/78/20 31/79/20 32/80/20
f 32/81/21 28/82/21 25/83/21 29/84/21
f 31/85/22 27/86/22 26/87/22 30/88/22
f 30/89/23 26/90/23 25/91/23 29/92/23
f 31/93/24 27/94/24 28/95/24 32/96/24
f 33/97/25 34/98/25 35/99/25 36/100/25
f 37/101/26 38/102/26 39/103/26 40/104/26
f 40/105/27 36/106/27 33/107/27 37/108/27
f 39/109/28 35/110/28 34/111/28 38/112/28
f 38/113/29 34/114/29 33/115/29 37/116/29
f 39/117/30 35/118/30 36/119/30 40/120/30
f 41/121/31 42/122/31 43/123/31 44/124/31
f 45/125/32 46/126/32 47/127/32 48/128/32
f 48/129/33 44/130/33 41/131/33 45/132/33
f 47/133/34 43/134/34 42/135/34 46/136/34
f 46/137/35 42/138/35 41/139/35 45/140/35
f 47/141/36 43/142/36 44/143/36 48/144/36
f 49/145/37 50/146/37 51/147/37 52/148/37
f 53/149/38 54/150/38 55/151/38 56/152/38
f 56/153/39 52/154/39 49/155/39 53/156/39
f 55/157/40 51/158/40 50/159/40 54/160/40
f 54/161/41 50/162/41 49/163/41 53/164/41
f 55/165/42 51/166/42 52/167/42 56/168/42
f 57/169/43 58/170/43 59/171/43 60/172/43
f 61/173/44 62/174/44 63/175/44 64/176/44
f 57/177/45 60/178/45 64/179/45 61/180/45
f 58/181/46 59/182/46 63/183/46 62/184/46
f 62/185/47 58/186/47 57/187/47 61/188/47
f 63/189/48 59/190/48 60/191/48 64/192/48
f 65/193/49 66/194/49 67/195/49 68/196/49
f 69/197/50 70/198/50 71/199/50 72/200/50
f 65/201/51 68/202/51 72/203/51 69/204/51
f 66/205/52 67/206/52 71/207/52 70/208/52
f 70/209/53 66/210/53 65/211/53 69/212/53
f 71/213/54 67/214/54 68/215/54 72/216/54
