# Made in Blockbench 5.1.6
mtllib picket_gate_open.mtl

g post
v 0.625 -0.49375 -0.06875
v 0.625 -0.49375 0.05625
v 0.625 0.50625 0.05625
v 0.625 0.50625 -0.06875
v 0.5 -0.49375 -0.06875
v 0.5 -0.49375 0.05625
v 0.5 0.50625 0.05625
v 0.5 0.50625 -0.06875
v -0.5 -0.49375 -0.06875
v -0.5 -0.49375 0.05625
v -0.5 0.50625 0.05625
v -0.5 0.50625 -0.06875
v -0.625 -0.49375 -0.06875
v -0.625 -0.49375 0.05625
v -0.625 0.50625 0.05625
v -0.625 0.50625 -0.06875
vt 0.4375 1
vt 0.4375 0
vt 0.5625 0
vt 0.5625 1
vt 0.4375 0
vt 0.5625 0
vt 0.5625 1
vt 0.4375 1
vt 0 0
vt 0 1
vt 0.125 1
vt 0.125 0
vt 0.125 0
vt 0.125 1
vt 0 1
vt 0 0
vt 0.125 0.4375
vt 0 0.4375
vt 0 0.5625
vt 0.125 0.5625
vt 0.125 0.5625
vt 0 0.5625
vt 0 0.4375
vt 0.125 0.4375
vt 0.4375 1
vt 0.4375 0
vt 0.5625 0
vt 0.5625 1
vt 0.5625 1
vt 0.5625 0
vt 0.4375 0
vt 0.4375 1
vt 1 1
vt 0.875 1
vt 0.875 0
vt 1 0
vt 0.125 0
vt 0.125 1
vt 0 1
vt 0 0
vt 1 0.4375
vt 0.875 0.4375
vt 0.875 0.5625
vt 1 0.5625
vt 1 0.5625
vt 0.875 0.5625
vt 0.875 0.4375
vt 1 0.4375
vn 1 0 0
vn -1 0 0
vn 0 0 1
vn 0 0 1
vn 0 1 0
vn 0 1 0
vn 1 0 0
vn 1 0 0
vn 0 0 -1
vn 0 0 1
vn 0 1 0
vn 0 1 0
usemtl m_cebedf6d-0686-daac-82ce-c196b54e7844
f 3/1/1 2/2/1 1/3/1 4/4/1
f 5/5/2 6/6/2 7/7/2 8/8/2
f 1/9/3 4/10/3 8/11/3 5/12/3
f 2/13/4 3/14/4 7/15/4 6/16/4
f 6/17/5 2/18/5 1/19/5 5/20/5
f 7/21/6 3/22/6 4/23/6 8/24/6
f 11/25/7 10/26/7 9/27/7 12/28/7
f 15/29/8 14/30/8 13/31/8 16/32/8
f 16/33/9 12/34/9 9/35/9 13/36/9
f 10/37/10 11/38/10 15/39/10 14/40/10
f 14/41/11 10/42/11 9/43/11 13/44/11
f 15/45/12 11/46/12 12/47/12 16/48/12
g gate
v -0.3750006249999998 -0.5000009740658199 1.0624998254667957
v -0.43750062499999975 -0.5000009740658199 1.0624998254667957
v -0.43750062499999975 0.49999902593411916 1.0625001745326461
v -0.3750006249999998 0.49999902593411916 1.0625001745326461
v -0.3750006249999998 -0.5000009522492042 0.9999998254667994
v -0.4375006249999998 -0.5000009522492042 0.9999998254667994
v -0.4375006249999998 0.4999990477507348 1.0000001745326499
v -0.3750006249999998 0.4999990477507348 1.0000001745326499
v -0.37500062499999987 -0.5000009086159729 0.8749998254668071
v -0.4375006249999998 -0.5000009086159729 0.8749998254668071
v -0.4375006249999998 0.4999990913839661 0.8750001745326575
v -0.37500062499999987 0.4999990913839661 0.8750001745326575
v -0.37500062499999987 -0.5000008649827415 0.7499998254668148
v -0.43750062499999987 -0.5000008649827415 0.7499998254668148
v -0.43750062499999987 0.4999991350171974 0.7500001745326652
v -0.37500062499999987 0.4999991350171974 0.7500001745326652
v -0.37500062499999987 -0.5000008213495103 0.6249998254668223
v -0.43750062499999987 -0.5000008213495103 0.6249998254668223
v -0.43750062499999987 0.4999991786504287 0.6250001745326728
v -0.37500062499999987 0.4999991786504287 0.6250001745326728
v -0.3750006249999999 -0.500000777716279 0.49999982546683
v -0.4375006249999999 -0.500000777716279 0.49999982546683
v -0.4375006249999999 0.49999922228366 0.5000001745326803
v -0.3750006249999999 0.49999922228366 0.5000001745326803
v -0.375000625 -0.5000007340830477 0.3749998254668376
v -0.4375006249999999 -0.5000007340830477 0.3749998254668376
v -0.4375006249999999 0.4999992659168913 0.37500017453268797
v -0.375000625 0.4999992659168913 0.37500017453268797
v -0.375000625 -0.5000006904498164 0.24999982546684518
v -0.437500625 -0.5000006904498164 0.2499998254668452
v -0.437500625 0.4999993095501226 0.25000017453269563
v -0.375000625 0.4999993095501226 0.2500001745326956
v -0.375000625 -0.5000006468165851 0.12499982546685279
v -0.437500625 -0.5000006468165851 0.12499982546685282
v -0.437500625 0.4999993531833539 0.1250001745327032
v -0.375000625 0.4999993531833539 0.12500017453270318
v -0.37500062500000003 -0.5000006249999694 0.062499825466856604
v -0.437500625 -0.5000006249999694 0.06249982546685662
v -0.437500625 0.49999937499996955 0.06250017453270702
v -0.37500062500000003 0.49999937499996955 0.06250017453270701
v -0.43750062499999975 0.18749902593413817 1.0625000654495678
v -0.5000006249999998 0.18749902593413817 1.0625000654495678
v -0.5000006249999998 0.3124990259341306 1.0625001090827992
v -0.43750062499999975 0.3124990259341306 1.0625001090827992
v -0.437500625 0.18749937499998856 0.06250006544962877
v -0.500000625 0.18749937499998856 0.06250006544962879
v -0.500000625 0.312499374999981 0.06250010908286008
v -0.437500625 0.312499374999981 0.06250010908286006
v -0.43750062499999975 -0.3125009740658313 1.0624998909166425
v -0.5000006249999998 -0.3125009740658313 1.0624998909166425
v -0.5000006249999998 -0.18750097406583896 1.0624999345498738
v -0.43750062499999975 -0.18750097406583896 1.0624999345498738
v -0.437500625 -0.31250062499998094 0.06249989091670357
v -0.500000625 -0.31250062499998094 0.062499890916703583
v -0.500000625 -0.18750062499998857 0.06249993454993488
v -0.437500625 -0.18750062499998857 0.06249993454993487
vt 0.875 0
vt 0.9375 0
vt 0.9375 1
vt 0.875 1
vt 0.0625 0
vt 0.125 0
vt 0.125 1
vt 0.0625 1
vt 0 1
vt 0.0625 1
vt 0.0625 0
vt 0 0
vt 0.9375 1
vt 1 1
vt 1 0
vt 0.9375 0
vt 0 0.5
vt 0.0625 0.5
vt 0.0625 0.4375
vt 0 0.4375
vt 0.0625 0.5
vt 0 0.5
vt 0 0.4375
vt 0.0625 0.4375
vt 0.1875 0
vt 0.25 0
vt 0.25 1
vt 0.1875 1
vt 0.3125 0
vt 0.375 0
vt 0.375 1
vt 0.3125 1
vt 0.3125 1
vt 0.1875 1
vt 0.1875 0
vt 0.3125 0
vt 0.6875 1
vt 0.8125 1
vt 0.8125 0
vt 0.6875 0
vt 0.3125 0.5
vt 0.1875 0.5
vt 0.1875 0.4375
vt 0.3125 0.4375
vt 0.3125 0.5
vt 0.1875 0.5
vt 0.1875 0.4375
vt 0.3125 0.4375
vt 0.4375 0
vt 0.5 0
vt 0.5 1
vt 0.4375 1
vt 0.6875 0
vt 0.75 0
vt 0.75 1
vt 0.6875 1
vt 0.5625 1
vt 0.4375 1
vt 0.4375 0
vt 0.5625 0
vt 0.4375 1
vt 0.5625 1
vt 0.5625 0
vt 0.4375 0
vt 0.5625 0.5
vt 0.4375 0.5
vt 0.4375 0.4375
vt 0.5625 0.4375
vt 0.5625 0.5
vt 0.4375 0.5
vt 0.4375 0.4375
vt 0.5625 0.4375
vt 0.5625 0
vt 0.625 0
vt 0.625 1
vt 0.5625 1
vt 0.6875 0
vt 0.75 0
vt 0.75 1
vt 0.6875 1
vt 0.8125 1
vt 0.6875 1
vt 0.6875 0
vt 0.8125 0
vt 0.1875 1
vt 0.3125 1
vt 0.3125 0
vt 0.1875 0
vt 0.6875 0.5
vt 0.5625 0.5
vt 0.5625 0.4375
vt 0.6875 0.4375
vt 0.6875 0.5
vt 0.8125 0.5
vt 0.8125 0.4375
vt 0.6875 0.4375
vt 0.875 0
vt 0.9375 0
vt 0.9375 1
vt 0.875 1
vt 0.0625 0
vt 0.125 0
vt 0.125 1
vt 0.0625 1
vt 0.9375 1
vt 1 1
vt 1 0
vt 0.9375 0
vt 0 1
vt 0.0625 1
vt 0.0625 0
vt 0 0
vt 1 0.5
vt 0.9375 0.5
vt 0.9375 0.4375
vt 1 0.4375
vt 1 0.5
vt 0.9375 0.5
vt 0.9375 0.4375
vt 1 0.4375
vt 0.875 0.6875
vt 0.9375 0.6875
vt 0.9375 0.8125
vt 0.875 0.8125
vt 0.125 0.6875
vt 0.1875 0.6875
vt 0.1875 0.8125
vt 0.125 0.8125
vt 0 0.6875
vt 0 0.8125
vt 1 0.8125
vt 1 0.6875
vt 1 0.6875
vt 1 0.8125
vt 0 0.8125
vt 0 0.6875
vt 0 0.6875
vt 1 0.6875
vt 1 0.625
vt 0 0.625
vt 0 0.75
vt 1 0.75
vt 1 0.6875
vt 0 0.6875
vt 0.875 0.1875
vt 0.9375 0.1875
vt 0.9375 0.3125
vt 0.875 0.3125
vt 0.125 0.1875
vt 0.1875 0.1875
vt 0.1875 0.3125
vt 0.125 0.3125
vt 0 0.1875
vt 0 0.3125
vt 1 0.3125
vt 1 0.1875
vt 1 0.1875
vt 1 0.3125
vt 0 0.3125
vt 0 0.1875
vt 0 0.1875
vt 1 0.1875
vt 1 0.125
vt 0 0.125
vt 0 0.25
vt 1 0.25
vt 1 0.1875
vt 0 0.1875
vn -2.220446049250825e-16 3.490658503988588e-7 -0.9999999999999392
vn -2.220446049250825e-16 3.490658503988588e-7 -0.9999999999999392
vn 1 2.098570868531111e-22 -2.2204460492497163e-16
vn 1 2.098570868531111e-22 -2.2204460492497163e-16
vn -1.0778026836723226e-22 0.9999999999999392 3.490658503988588e-7
vn -1.0778026836723226e-22 0.9999999999999392 3.490658503988588e-7
vn -2.220446049250825e-16 3.490658503988588e-7 -0.9999999999999392
vn -2.220446049250825e-16 3.490658503988588e-7 -0.9999999999999392
vn 1 2.098570868531111e-22 -2.2204460492497163e-16
vn 1 2.098570868531111e-22 -2.2204460492497163e-16
vn -1.0778026836723226e-22 0.9999999999999392 3.490658503988588e-7
vn -1.0778026836723226e-22 0.9999999999999392 3.490658503988588e-7
vn -2.220446049250825e-16 3.490658503988588e-7 -0.9999999999999392
vn -2.220446049250825e-16 3.490658503988588e-7 -0.9999999999999392
vn 1 2.098570868531111e-22 -2.2204460492497163e-16
vn 1 2.098570868531111e-22 -2.2204460492497163e-16
vn -1.0778026836723226e-22 0.9999999999999392 3.490658503988588e-7
vn -1.0778026836723226e-22 0.9999999999999392 3.490658503988588e-7
vn -2.220446049250825e-16 3.490658503988588e-7 -0.9999999999999392
vn -2.220446049250825e-16 3.490658503988588e-7 -0.9999999999999392
vn 1 2.098570868531111e-22 -2.2204460492497163e-16
vn 1 2.098570868531111e-22 -2.2204460492497163e-16
vn -1.0778026836723226e-22 0.9999999999999392 3.490658503988588e-7
vn -1.0778026836723226e-22 0.9999999999999392 3.490658503988588e-7
vn -2.220446049250825e-16 3.490658503988588e-7 -0.9999999999999392
vn -2.220446049250825e-16 3.490658503988588e-7 -0.9999999999999392
vn 1 2.098570868531111e-22 -2.2204460492497163e-16
vn 1 2.098570868531111e-22 -2.2204460492497163e-16
vn -1.0778026836723226e-22 0.9999999999999392 3.490658503988588e-7
vn -1.0778026836723226e-22 0.9999999999999392 3.490658503988588e-7
vn -2.220446049250825e-16 3.490658503988588e-7 -0.9999999999999392
vn -2.220446049250825e-16 3.490658503988588e-7 -0.9999999999999392
vn -1 -2.098570868531111e-22 2.2204460492497163e-16
vn -1 -2.098570868531111e-22 2.2204460492497163e-16
vn -1.0778026836723226e-22 0.9999999999999392 3.490658503988588e-7
vn -1.0778026836723226e-22 0.9999999999999392 3.490658503988588e-7
vn -2.220446049250825e-16 3.490658503988588e-7 -0.9999999999999392
vn -2.220446049250825e-16 3.490658503988588e-7 -0.9999999999999392
vn -1 -2.098570868531111e-22 2.2204460492497163e-16
vn -1 -2.098570868531111e-22 2.2204460492497163e-16
vn -1.0778026836723226e-22 0.9999999999999392 3.490658503988588e-7
vn -1.0778026836723226e-22 0.9999999999999392 3.490658503988588e-7
usemtl m_966d7dcc-661b-5377-a2ab-8a5fa7d1fda5
f 17/49/13 18/50/13 19/51/13 20/52/13
f 21/53/14 22/54/14 23/55/14 24/56/14
f 24/57/15 20/58/15 17/59/15 21/60/15
f 23/61/16 19/62/16 18/63/16 22/64/16
f 22/65/17 18/66/17 17/67/17 21/68/17
f 23/69/18 19/70/18 20/71/18 24/72/18
f 25/73/19 26/74/19 27/75/19 28/76/19
f 29/77/20 30/78/20 31/79/20 32/80/20
f 32/81/21 28/82/21 25/83/21 29/84/21
f 31/85/22 27/86/22 26/87/22 30/88/22
f 30/89/23 26/90/23 25/91/23 29/92/23
f 31/93/24 27/94/24 28/95/24 32/96/24
f 33/97/25 34/98/25 35/99/25 36/100/25
f 37/101/26 38/102/26 39/103/26 40/104/26
f 40/105/27 36/106/27 33/107/27 37/108/27
f 39/109/28 35/110/28 34/111/28 38/112/28
f 38/113/29 34/114/29 33/115/29 37/116/29
f 39/117/30 35/118/30 36/119/30 40/120/30
f 41/121/31 42/122/31 43/123/31 44/124/31
f 45/125/32 46/126/32 47/127/32 48/128/32
f 48/129/33 44/130/33 41/131/33 45/132/33
f 47/133/34 43/134/34 42/135/34 46/136/34
f 46/137/35 42/138/35 41/139/35 45/140/35
f 47/141/36 43/142/36 44/143/36 48/144/36
f 49/145/37 50/146/37 51/147/37 52/148/37
f 53/149/38 54/150/38 55/151/38 56/152/38
f 56/153/39 52/154/39 49/155/39 53/156/39
f 55/157/40 51/158/40 50/159/40 54/160/40
f 54/161/41 50/162/41 49/163/41 53/164/41
f 55/165/42 51/166/42 52/167/42 56/168/42
f 57/169/43 58/170/43 59/171/43 60/172/43
f 61/173/44 62/174/44 63/175/44 64/176/44
f 57/177/45 60/178/45 64/179/45 61/180/45
f 58/181/46 59/182/46 63/183/46 62/184/46
f 62/185/47 58/186/47 57/187/47 61/188/47
f 63/189/48 59/190/48 60/191/48 64/192/48
f 65/193/49 66/194/49 67/195/49 68/196/49
f 69/197/50 70/198/50 71/199/50 72/200/50
f 65/201/51 68/202/51 72/203/51 69/204/51
f 66/205/52 67/206/52 71/207/52 70/208/52
f 70/209/53 66/210/53 65/211/53 69/212/53
f 71/213/54 67/214/54 68/215/54 72/216/54
